<svg width="75" height="65" viewBox="0 0 75 65" fill="none" xmlns="http://www.w3.org/2000/svg">
<path fill-rule="evenodd" clip-rule="evenodd" d="M71.4597 0C69.5451 0 67.993 1.5521 67.993 3.4667V30.0816C67.993 31.9962 69.5451 33.5483 71.4597 33.5483C73.3743 33.5483 74.9264 31.9962 74.9264 30.0816V3.4667C74.9264 1.55209 73.3743 0 71.4597 0ZM40.7922 11.1757C40.7922 9.26108 42.3443 7.70898 44.2589 7.70898C46.1735 7.70898 47.7256 9.26108 47.7256 11.1757V37.7905C47.7256 39.7051 46.1735 41.2572 44.2589 41.2572C42.3443 41.2572 40.7922 39.7052 40.7922 37.7905V11.1757ZM17.0641 15.4141C15.1495 15.4141 13.5974 16.9662 13.5974 18.8808V45.4956C13.5974 47.4102 15.1495 48.9623 17.0641 48.9623C18.9787 48.9623 20.5308 47.4102 20.5308 45.4956V18.8808C20.5308 16.9662 18.9787 15.4141 17.0641 15.4141ZM3.4667 30.8281C1.55209 30.8281 0 32.3802 0 34.2948V60.9097C0 62.8243 1.5521 64.3764 3.4667 64.3764C5.3813 64.3764 6.9334 62.8243 6.9334 60.9097V34.2948C6.9334 32.3802 5.3813 30.8281 3.4667 30.8281ZM54.3916 18.8808C54.3916 16.9662 55.9437 15.4141 57.8583 15.4141C59.7729 15.4141 61.325 16.9662 61.325 18.8808V45.4956C61.325 47.4102 59.7729 48.9623 57.8583 48.9623C55.9437 48.9623 54.3916 47.4102 54.3916 45.4956V18.8808ZM30.6615 23.1211C28.7469 23.1211 27.1948 24.6732 27.1948 26.5878V53.2027C27.1948 55.1173 28.7469 56.6694 30.6615 56.6694C32.5761 56.6694 34.1282 55.1173 34.1282 53.2027V26.5878C34.1282 24.6732 32.5761 23.1211 30.6615 23.1211Z" fill="#B71544"/>
</svg>
