<svg width="110" height="18" viewBox="0 0 110 18" fill="none" xmlns="http://www.w3.org/2000/svg">
<path d="M7.61371 17.2559L0.269709 0.455858H3.65371L10.2057 15.6479H8.26171L14.8857 0.455858H18.0057L10.6857 17.2559H7.61371ZM33.3541 17.4959C31.0501 17.4959 29.2421 16.8479 27.9301 15.5519C26.6341 14.2559 25.9861 12.3839 25.9861 9.93586V0.455858H29.1061V9.81586C29.1061 11.5439 29.4741 12.7999 30.2101 13.5839C30.9621 14.3679 32.0181 14.7599 33.3781 14.7599C34.7381 14.7599 35.7861 14.3679 36.5221 13.5839C37.2581 12.7999 37.6261 11.5439 37.6261 9.81586V0.455858H40.6981V9.93586C40.6981 12.3839 40.0421 14.2559 38.7301 15.5519C37.4341 16.8479 35.6421 17.4959 33.3541 17.4959ZM49.7956 17.2559V15.1679L60.6436 1.91986L61.0036 3.09586H49.9636V0.455858H63.8116V2.54386L52.9636 15.7919L52.5796 14.6159H64.1236V17.2559H49.7956ZM75.8616 7.43986H84.2136V10.0079H75.8616V7.43986ZM76.1016 14.6399H85.5816V17.2559H72.9816V0.455858H85.2456V3.07186H76.1016V14.6399ZM102.836 17.4959C101.556 17.4959 100.364 17.2879 99.2598 16.8719C98.1718 16.4399 97.2198 15.8399 96.4038 15.0719C95.6038 14.2879 94.9798 13.3679 94.5318 12.3119C94.0838 11.2559 93.8598 10.1039 93.8598 8.85586C93.8598 7.60786 94.0838 6.45586 94.5318 5.39986C94.9798 4.34386 95.6118 3.43186 96.4278 2.66386C97.2438 1.87986 98.1958 1.27986 99.2838 0.863859C100.372 0.431859 101.564 0.215858 102.86 0.215858C104.236 0.215858 105.492 0.455859 106.628 0.935859C107.764 1.39986 108.724 2.09586 109.508 3.02386L107.492 4.91986C106.884 4.26386 106.204 3.77586 105.452 3.45586C104.7 3.11986 103.884 2.95186 103.004 2.95186C102.124 2.95186 101.316 3.09586 100.58 3.38386C99.8598 3.67186 99.2278 4.07986 98.6838 4.60786C98.1558 5.13586 97.7398 5.75986 97.4358 6.47986C97.1478 7.19986 97.0038 7.99186 97.0038 8.85586C97.0038 9.71986 97.1478 10.5119 97.4358 11.2319C97.7398 11.9519 98.1558 12.5759 98.6838 13.1039C99.2278 13.6319 99.8598 14.0399 100.58 14.3279C101.316 14.6159 102.124 14.7599 103.004 14.7599C103.884 14.7599 104.7 14.5999 105.452 14.2799C106.204 13.9439 106.884 13.4399 107.492 12.7679L109.508 14.6879C108.724 15.5999 107.764 16.2959 106.628 16.7759C105.492 17.2559 104.228 17.4959 102.836 17.4959Z" fill="#B71544"/>
</svg>
